<svg xmlns="http://www.w3.org/2000/svg" xmlns:xlink="http://www.w3.org/1999/xlink" viewBox="0 0 900 600"><defs><style>.cls-1{opacity:0.18;}.cls-11,.cls-12,.cls-2{fill:#fac8d0;}.cls-2{opacity:0.1;}.cls-3{opacity:0.9;}.cls-4{fill:#fee7e8;}.cls-5{fill:#feeff0;}.cls-6{fill:#fcd0d2;}.cls-7{fill:#fcc9cb;}.cls-8{fill:#fddee0;}.cls-9{fill:#fdd8d9;}.cls-10{fill:#fbc0c3;}.cls-11{opacity:0.21;}.cls-12{opacity:0.3;}.cls-13,.cls-14,.cls-15{fill:none;stroke-miterlimit:10;}.cls-13{stroke:#fef7f8;}.cls-14,.cls-15{stroke:#231f20;}.cls-14{opacity:0.64;}.cls-16{opacity:0.91;font-size:334.89px;fill:#fff;font-family:hellohoneyPersonalUse, hello honey - Personal Use;}</style></defs><g id="Background"><image class="cls-1" width="600" height="600" transform="translate(0 0) scale(1.5 1)" xlink:href="../../Downloads/rm200-ning-34.jpg"/><rect class="cls-2" width="900" height="600"/><g class="cls-3"><g class="cls-3"><path class="cls-4" d="M728,450.91c-.34-.55-2.2-.52-1.63-1.32l6-1C732.55,449.46,731.4,450.85,728,450.91Z" transform="translate(0 0)"/><path class="cls-4" d="M700.36,471.49c-2.83.42-5.5.87-8.32,1.33-1.73.13-3.62.22-5.35.37l-1.42.17c-2.52.17-5,.43-7.55.58l-5.36.56-.78-.19c-1.73.29-3.46.59-5.2.8-.63-.1-1.1-.23-1.57-.34-.95.3-2.06.68-3,1l-5.35.49v.27l-12.8,1.3-10.65.58-10.66.5,0-.81-4.58.21,0,.82-12,.77-4.59.16c-4.19-.83-3.17.14-4.59.13l-5.31-.68-2.21.05c-1.57-.12-3-.28-4.54-.42-4.75.12-8.57.1-12.24,0L561,479c-5.08.19-15.42.59-18.67-1.14-3.41.66-6.85.28-10,.23.27-.8-2.3-.52-3.67-.89l-3-.12-4.56-.18-4.56-.2L501.44,476c-1.71-.19-3.41-.39-5.13-.53s-3.63,0-5.38,0l-5.2-.05c-1.92.11-3.66.19-5.42.26l-.78-.05c-2.2-.06-4.57-.07-6.78-.08-2.52-.08-5-.1-7.56-.12-1.55-.19-2.95-.37-4.51-.5-2,.86-5.28.42-7.59.09-4.25-.11-8.5-.23-12.74-.39-1.61.24-3.24.53-4.7.78a4.11,4.11,0,0,1-.63-1.06L422.91,474l-.24,1.56a13.56,13.56,0,0,0-4.79,1.32l-5.21-.06c-5.57-.67-8.64-1.26-10.49-.54-3.64,0-7.12,0-10.74,0-5.08-.86-8.23-.91-8.2-.15l-3.13-.17-7.52-.39c-4.45-.83-5.37,0-6,.18l-6-.32-7.52-.39c-4.19-.43-3.51.25-6.19.22-1.39-.23-2.93-.47-4.46-.77l-1.41-.07c-1.57.94-4.5.47-6.2.22l-1.41-.08c-1.09.92-3.4.53-4.63.3-.52.3-1,.6-1.73.94-2-.32-3.86-.58-5.87-.85l-4.54-.23-1.57,1-4.47-.72c-2.8-.26-5.45-.5-8.26-.7-.22-.61-.27-1.26-.5-1.87,1.29-.15,2.59-.35,3.88-.55l.79,0a12.43,12.43,0,0,0,1.32,1.63l4.39.23c2.13-.48,4.59-.09,6.23-.49,1.38.29,2.92.53,4.46.78h5.22l3.05-.33c1.62-1.22,3.76-.78,5.5-.8l.12-.75,1.56.08c2.19.17,4.37.39,6.7.62a7.74,7.74,0,0,0,5.37-1c1.59,0,3.17-.05,4.59,0,.93.1,2,.27,2.94.42l1.65-.45c4.51.4,9,.79,13.39,1.23,1.16-.31,2.14-.59,3.29-.85l5.88.79c2.05.05,3.95,0,6,0l2.35.12.08-.48c2.18.17,4.52.4,6.69.62l-.07.48c4.33.55,4.31-.31,6.85-.4,1.74,0,3.64,0,5.37,0-1.19-1.42-4.91-1.88-6.62-1.1l-1.56-.08-4.38-1.31c5.63-1.61,9.94.08,14.47-.55,4.83.36,5.84-2,10.81-.47,4.15.76,6.84.74,7.6-.09,4.4.12,9,.25,13.52.43,1,1,2.65.25,4.5.51,8.62-1.56,16.35,1.5,25,0,3.65.94,5.63.34,9.13.2,2.5.18,5,.42,7.48.66,4.18-1.46,8,1.39,13.45.9,2.33.22,4.51.44,6.7.59,3.16,0,7.86-.88,8.35.11,2.84,0,3.41,1.45,7.41,1.12,4.34-.53,10.22.27,13-.57,5.22,1.09,15.34-.45,21,.92,4.51-.9,12.14-.25,18.13-.44l3.77-.05c-.21.6,1.85.46,3,.45s2.49.19,3.16-.31c-.11-.42,2.06-.2,4.33.72v.27l-3.87,1.11c2,.72,3.56.68,5.24,1.18.34-.28.52-.55.86-.83,1.28-.25,2.56-.55,3.85-.85l2.91.94c3.89.46,2-1.09,4.66-1.46l6.69,1.05c5.06-.63,9.1.43,13.55-.67a11.57,11.57,0,0,1,1.51,1.21c1.58-.15,3-.34,4.59-.54,2.52,0,5-.12,7.55-.23,1.45-.92,5.87-1.54,6-.42l7.57-.61,4.59-1.69c-1.09-.88,2.22-1.78,4.57-1.73l1.4.9,3.15-.78c.94.19,2,.29,3,.46l3-.31,4.55-.47a37.41,37.41,0,0,0,6-1.43c0-.38,0-.71,0-1,1.1-.5,2-.94,3-1.43,4.06-.67,7-.47,10.63-.76,5-.1,3.18,1.44,3.83,2.13l3.76-.52a22.71,22.71,0,0,0,2.23,1.28C706.79,470.61,703.35,471.16,700.36,471.49Z" transform="translate(0 0)"/><path class="cls-4" d="M678.25,454c-2.92,1-4.48.91-5.86.41C674.85,453.55,678.24,452.58,678.25,454Z" transform="translate(0 0)"/><path class="cls-5" d="M663.38,461.6c-.62.33-1.4.62-2.18,1-5.91.2-10.92,1.77-17.12,1.46-2.4,2,2,2,.53,3.1-.81.88-2.82.42-4.41,1.07v.28c-1.62,1.57-1.64,2-1.65,2.44-1.74.28-3.47.57-5.36.91-1.39-.46-2.93-.85-4.32-1.31.84-1.3,4.41-.74,4.45-1.84l3.15-.7c-5-.93-9.49-.4-13.55-.26l-2.91-.87a15.41,15.41,0,0,1,1.61-1.11l3-.44c3-.23,5.93-.5,8.89-.8,1.41-.15,2.5-.34,3.75-.48.64-.58,1.13-1.16,1.61-1.68l4.53-1.13c1.71.08,3.41.1,5.11.13,2.49,0,4-.65,6.07-1l1.4-.13c2.47,0,5.11-.09,7.44-.14C663.39,460.57,663.39,461.06,663.38,461.6Z" transform="translate(0 0)"/><path class="cls-6" d="M705,453.56c-3.38.75-6.77,1.5-10.32,2.2-2.78.51-5.4,1-8.19,1.51l-1.39.16c-.78-.39-1.56-.85-2.34-1.3-3.4.17-1.69,1.39-3.7,2-2.63.43-5.42.74-8.21,1.15l-3.72.12c-.61-.43-1.39-.89-2.16-1.36-3.56.27-7.74.6-9,2.13l-1.4.13c-2,.38-3.58,1.05-6.07,1-1.7,0-3.4-.05-5.11-.13l-4.53,1.13-5.28.37c-1.11.51-1.15,1.43-.08,1.79-3,.3-5.93.57-8.89.8l.12-2.61c-2.83-.72-6-.51-9.37-.19a52.44,52.44,0,0,1-10.79.35,51.64,51.64,0,0,0-5.81-.08c-1.87,0-3.68.16-5.45.26a45.39,45.39,0,0,1-10.31-.2c11.74-1.12,23.49-.85,32.09-2.25l0,.27c5.3-.54,11,0,17.21-.66,3.43-.61,6.39-1.41,7.43-.24l3.73-.26c.47-.14.93-.29,1.4-.38,1.86-.1,3.56-.13,5.26-.16,0-.49,0-.87,0-1.3A27.27,27.27,0,0,0,656.8,456c5.25-.48,10.34-1,15.59-1.52,1.38.5,2.94.58,5.86-.41,10.49-.74,20.82-1.64,31.15-2.67C707.88,452.13,706.52,452.86,705,453.56Z" transform="translate(0 0)"/><path class="cls-7" d="M656.8,456a27.27,27.27,0,0,1-6.68,1.87c0,.43,0,.81,0,1.3-1.7,0-3.4.06-5.26.16-.47.09-.93.24-1.4.38l-3.73.26c-1-1.17-4-.37-7.43.24-6.22.64-11.91.12-17.21.66l0-.27c-8.6,1.4-20.35,1.13-32.09,2.25a45.39,45.39,0,0,0,10.31.2c1.77-.1,3.58-.22,5.45-.26a51.64,51.64,0,0,1,5.81.08,52.44,52.44,0,0,0,10.79-.35c3.39-.32,6.54-.53,9.37.19l-.12,2.61-3,.44c-1.23-.21-2.47-.43-3.7-.58-2.34,0-.82.79-2.4,1.14l-5.93.26c-4.21.14-8.42.33-12.8.43-2.22.49-5.47.29-8.29.47-1.39-.18-2.94-.34-4.33-.48-3.83-.71-5.53-.8-6.81-.46-1.38-.19-2.92-.48-4.29-.74-1.11.16-2.06.32-3.18.54-1.69-.22-3.39-.37-5.08-.54-2.06.25-4.12.49-6.17.69l-5.89-.29L549,466.1c-2-1.62-2.9.7-7.48-.19a4,4,0,0,1-.85.47c-2.94.88-6.75.11-9,.25l-4.41-1-4.5-.39-6.79.19-.78,0c-2.81-.18-5.45-.42-8.25-.66-5-.35-5.42.38-8.3.67-4.3-.76-5.2-.1-6.92-.13a49.24,49.24,0,0,0-6.66-.84l-10.5-.54a10.16,10.16,0,0,1-3.1.6l-1.56-.09c-1.41-.12-2.95-.31-4.51-.5-1.84-.31-5.34-1.14-8.11-.64-3.12-.27-6.08-.53-9.05-.74-3.35.2-5.71.14-9.2.28-2.22.05-4.44.09-6.83.19-7.13-.81-8.85,0-13.55-.22l-7.65.41-6.81.13c-.9-.31-2.84,0-4.55-.23-9-1.17-13.74-1-18.1-.4-2.53,0-5.22.05-7.61.14l-4.54-.23a13.36,13.36,0,0,0-6.11-.32l-.08.48-6.74-.35a4.5,4.5,0,0,1-.82.23l-4.35-.5c-.64.08-1.12.11-1.61.19-1.73,0-3.63,0-5.36,0-.93-.15-2-.32-2.94-.42-1.42,0-3,0-4.59,0l-8.93-.46c4-.44,6.56-1.5,9.06-.34l4.58,0a34.78,34.78,0,0,1,9.13.2l1.61-1.21,3.13.16c.67-1.21,2.82-.83,4.56-.79a15.52,15.52,0,0,0,1.69-.73l5.4-.2c1.37.39,2.16,1.35,4.23,1.25.66-1.16-.84-3.67,5.08-3.15s12.3.15,18.8,1a14.43,14.43,0,0,1,6.9-.67c-.25.64,1.8.63,3.05.7,3.62.13,4.36-.59,8.23-.12.61.14,1.08.22,1.53.35,2.48-.68,2.22-1,4-1.09a16,16,0,0,0-5.28-.54l-1.41-.08-4.47-.72,4.55.24c.57-.62,1.13-1.19,1.7-1.75l2.35.12a84.57,84.57,0,0,1,8.68,2l1.57.08c1.63-.29,3.09-.54,4.7-.78.47.08.92.21,1.38.29l3.83-.29,4.55.24a5.14,5.14,0,0,1,.83-.23l4.54.24c1.23.22,2.46.45,3.68.73-.08.48-.16,1-.24,1.5a14.22,14.22,0,0,0,1.32.61l.79,0,7.76-1.16a3.09,3.09,0,0,0-.7-.53l9.05.69c1.6-.13,3.05-.33,4.67-.52,2.63.3,5.43.61,8.21,1,5.76-.4,9.88-.51,12.73.39,2.81.2,5.45.44,8.25.69l2.18.11c1.11-.06,2.07-.12,3.17-.12,1.22.22,2.29.44,3.67.66A11.25,11.25,0,0,0,514,458.6c2.17.21,4.49.42,6.67.56,7.65.17,15.44.29,23.22.33,2.49,0,4.15-.87,6.8-.93l1.54,0,4.24.87c3.56,0,7,.1,10.37.09,2.33-.1,4.52-.21,6.84-.27h2.95q27.86-.13,55.71-1.69c4,1.07,3.24,0,4.48-.31l6.59-.22,6.69-.3C652.31,456.52,654.63,456.23,656.8,456Z" transform="translate(0 0)"/><path class="cls-4" d="M637.24,464c-1.25.14-2.34.33-3.75.48-1.07-.36-1-1.28.08-1.79l5.28-.37C638.37,462.85,637.88,463.43,637.24,464Z" transform="translate(0 0)"/><path class="cls-8" d="M682.88,470a37.41,37.41,0,0,1-6,1.43l-4.55.47-3,.31a7.51,7.51,0,0,0-.79.63,21.28,21.28,0,0,1-2.19-1.09l-3.15.78-1.4-.9c-2.35-.05-5.66.85-4.57,1.73L652.7,475l-7.57.61c-.12-1.12-4.54-.5-6,.42-2.52.11-5,.21-7.55.23-1.59.2-3,.39-4.59.54a11.57,11.57,0,0,0-1.51-1.21c-4.45,1.1-8.49,0-13.55.67l-6.69-1.05c-2.69.37-.77,1.92-4.66,1.46l-2.91-.94c-1.29.3-2.57.6-3.85.85-.34.28-.52.55-.86.83-.47.07-1,.19-1.59.31-1.22-.51-2.28-1-3.65-1.49,1.45-.46,2.59-.92,3.88-1.38-2.27-.92-4.44-1.14-4.33-.72-.67.5-2.06.24-3.16.31s-3.16.15-3-.45l-3.77.05c-6,.19-13.62-.46-18.13.44-5.65-1.37-15.77.17-21-.92-2.8.84-8.68,0-13,.57-4,.33-4.57-1.1-7.41-1.12-.49-1-5.19-.12-8.35-.11-2.19-.15-4.37-.37-6.7-.59-5.45.49-9.27-2.36-13.45-.9-2.49-.24-5-.48-7.48-.66-3.5.14-5.48.74-9.13-.2-8.61,1.5-16.34-1.56-25,0-1.85-.26-3.55.46-4.5-.51-4.56-.18-9.12-.31-13.52-.43-.76.83-3.45.85-7.6.09-5-1.5-6,.83-10.81.47-4.53.63-8.84-1.06-14.47.55l4.38,1.31,1.56.08c1.71-.78,5.43-.32,6.62,1.1-1.73,0-3.63,0-5.37,0l-6.85.4.07-.48c-2.17-.22-4.51-.45-6.69-.62l-.08.48-2.35-.12c-1.43,0-3,.06-4.43,0l-1.57-.08-5.88-.79a11.27,11.27,0,0,0-1.73.94l-1.56-.09c-4.35-.44-8.88-.83-13.39-1.23l-1.65.45c-.93-.15-2-.32-2.94-.42l.12-.75c-.88-.43-1.92-.81-2.81-1.23.84-.28,1.68-.62,2.36-.91,4.63-.3,9.4-1.51,14-1.6,1.58,1.06,4,.54,8.23,1l.08-.53c3.95,0,8.05.09,12,.08,2.6.51,2-.6,3.29-.86l3.76.2c3.21-.32,7.22-.66,10-1.06,17.51,1.18,31.72,1.22,48.32,1.22,4.24.11,4.17,1.51,10.49.54l5.36.07c6.17.91,10,.79,12.69,1.68,4.29-.15,3.19-1.18,4.59-1.06l3.13.17c4.16.7,5.2.1,6.78.07,4.14.81,4.72.13,6,.3l.78,0,9.08.43,2.19.1c2.15.37,4.46.74,6.63,1l9.11.14,3.76.13,0,.21c7.76.86,18.5.47,24.7,1.09,4-.64,8.79,0,12.11-.22,1,1,3.89.33,5.88.8l4.53.16c5,.18,11.65-.64,15,.52l7.61-1.27c.46.2.91.45,1.52.7l3.77-.13c.14.32-.68.89.56,1a19,19,0,0,0,7.64-1.93c1.55.14,3.11.25,4.52.32l3.78-.49,2.4-1.16c1.39.46,2.93.85,4.32,1.31,1.89-.34,3.62-.63,5.36-.91s3.61-.41,5.34-.64l1.4-.11,6.12-.5,3,.58c3.76-.43,7.53-1.67,11.28-1l10.49-.81c2.66-.21,4.23.51,6.73.55C682.88,469.28,682.88,469.61,682.88,470Z" transform="translate(0 0)"/><path class="cls-9" d="M633.32,468.67c-1.25,0-2.34,0-3.74-.05-2.49-.18-2.84.71-3.81,1.31-1.41,0-3,0-4.37,0-1.11.37-2.07.8-3.19,1.18,0,.27,0,.54,0,.75a19,19,0,0,1-7.64,1.93c-1.24-.12-.42-.69-.56-1l-3.77.13c-.61-.25-1.06-.5-1.52-.7l-7.61,1.27c-3.36-1.16-10-.34-15-.52l-4.53-.16c-2-.47-4.88.17-5.88-.8-3.32.18-8.11-.42-12.11.22-6.2-.62-16.94-.23-24.7-1.09l0-.21-3.76-.13-9.11-.14c-2.17-.3-4.48-.67-6.63-1l-2.19-.1-9.08-.43-.78,0c-1.24-.17-1.82.51-6-.3-1.58,0-2.62.63-6.78-.07l-3.13-.17c-1.4-.12-.3.91-4.59,1.06-2.7-.89-6.52-.77-12.69-1.68l-5.36-.07c-6.32,1-6.25-.43-10.49-.54-16.6,0-30.81,0-48.32-1.22-2.74.4-6.75.74-10,1.06l-3.76-.2c-1.3.26-.69,1.37-3.29.86-3.95,0-8.05,0-12-.08l-.08.53c-4.2-.43-6.65.09-8.23-1-4.59.09-9.36,1.3-14,1.6-.68.29-1.52.63-2.36.91.89.42,1.93.8,2.81,1.23l-.12.75c-1.42,0-3,0-4.59,0a7.74,7.74,0,0,1-5.37,1c-2.33-.23-4.51-.45-6.7-.62l-1.56-.08-3.72-.46c-4.77.18-8.66.79-14.46.54l-12.11-.35-.79,0,.12-.76c1.61-.13,3-.22,4.63-.3,0-.27,2.42-.3,1.73-.94-5.68,0-6.49-1.9-11.12-1.6l-3.17,0-7.31-1.68,9.94,0c6.79,0,14.83.18,21,1.36,3.88.42,4.62-1.22,7.72-.9,4.52-.57,9-1.15,14-1.38.69-.4,1.54-.79,2.4-1.18,1.73,0,3.47,0,5.37,0l.62,0,5.91,1.6c.88-.55,1.6-1.11,2.48-1.66l-4.42-1,.12-.75a4.5,4.5,0,0,0,.82-.23l6.74.35,5.29.55a3.15,3.15,0,0,1,.9-.71l4.54.23c2.39-.09,5.08-.11,7.61-.14,4.36-.59,9.13-.77,18.1.4,1.71.25,3.65-.08,4.55.23l6.81-.13c2.5.19,5,.42,7.48.66l13.61-.1,3.71.46c2,.38,3.05-.27,4.63-.3l16.65.65c4.26,0,8.52.07,12.78.12l0-.27,1.56.09c1.39.23,2.93.47,4.46.77,3,0,6.39.55,9,.19l1.48.62,5.3-.53,3.71.45c1.14-.21,1.85-.71,3.25-.59,1.22.23,2.29.44,3.68.67a17,17,0,0,0,3.79-.08c2.34.22,5,.46,7.48.62l4.37.2.08-.49c1.57,0,3.16-.08,4.57-.07l0,.27c1.58-.05,3-.1,4.57-.09l4.53.17c2.22-.14,6,.63,9-.25l5.2.94c1.94-.44,4.84.11,6.78-.4l2.84,1.07c1.13-.26,2.09-.46,3.06-.72,2.33.08,4.51.21,6.84.34l0-.27h4.37l7.49,0,0,.49a45,45,0,0,1-12,1.1l-.06.48c6.64.76,12.36,0,14.94.76,6.08.22,15.93.35,22.57-.76l2.9.93,2.21-.35,4.52.09c0-.33,0-.71.07-1l5.42-2.09-2.3-.65c1.58-.35.06-1.14,2.4-1.14,1.23.15,2.47.37,3.7.58a15.41,15.41,0,0,0-1.61,1.11l2.91.87c4.06-.14,8.6-.67,13.55.26Z" transform="translate(0 0)"/><path class="cls-4" d="M626.47,471.67l-3.78.49c-1.41-.07-3-.18-4.52-.32,0-.21,0-.48,0-.75,1.12-.38,2.08-.81,3.19-1.18,1.4,0,3,0,4.37,0,1.09.15,2,.37,3.1.58Z" transform="translate(0 0)"/><path class="cls-4" d="M389.16,452.71c-1,0-2.06.06-3,.11-3-.26-6.08-.53-9.05-.74l.12-.75-6.74-.35a7.68,7.68,0,0,0-1.48-.61c1.73-.94,6.12-.72,8.35.16.35-.25.55-.46.9-.71,3.75.25,7.5.55,11.24.85l8.27.65a5.81,5.81,0,0,0,.54,1.6Z" transform="translate(0 0)"/><path class="cls-6" d="M287,470c.88,2.37-10.65-.61-8,2.66.25.45.34.89.58,1.33l-.16,1-4.54-.23-1.58,1c-2.09.21-4.18.43-6.28.7-2-1.4-1.9-1.94-1.83-2.42,1.29-.15,2.57-.25,3.85-.35a8,8,0,0,1-.49-1.86l0-.22.21-1.28-5.33-.28c-.12-.28-.39-.56-.5-.84a14.21,14.21,0,0,1-1.24-2.12c2.52,0,5.05.05,7.56.12l.78,0-.2,1.29c.76.2,1.36.4,2.11.65l6.28-.75a14.06,14.06,0,0,1-1.2-2.39l0-.27a6.86,6.86,0,0,1,1-1.25c-.75-.25-1.49-.56-2.23-.87-.07-.55-.31-1-.38-1.59l0-.27,4.46-.25c2.83.09,3.75,1.27,4.27,2l-.21,1.29c.27.29.39.56.66.85-.85.39-1.7.78-2.4,1.17.11.33.36.72.46,1.06a5.81,5.81,0,0,0-.71.5C283.73,469,285.39,469.45,287,470Z" transform="translate(0 0)"/><path class="cls-4" d="M276.88,477.29l-3.55-1.48,1.58-1,4.54.23a11.66,11.66,0,0,0,1.4,1.16C279.37,476.56,278.21,476.87,276.88,477.29Z" transform="translate(0 0)"/><path class="cls-4" d="M252.64,462.77c.81.91,1.61,1.82,2.57,2.73l-.08.48a5.23,5.23,0,0,0-.91.77,26.43,26.43,0,0,0,.26,3.37c.81.85,2.38,2-.29,1.82l-2.35-.12.25-1.55c-1.54-1.28-5.48-2.35-.88-3.41-3.4-1.52-4.94-3.72-.13-4.17.93-.93,1.86-1.8,2.64-2.73l2.35.12a14.39,14.39,0,0,1,1.33.61C255.87,461.37,254.18,462,252.64,462.77Z" transform="translate(0 0)"/><path class="cls-5" d="M700.3,468.89c-.65-.69,1.19-2.23-3.83-2.13,2.5-.43,5-.8,7.5-1.27,2.51.31,3.67,2.06.09,2.88Z" transform="translate(0 0)"/><path class="cls-5" d="M705,454.6c-.45.6-.9,1.21-1.34,1.77-7.69,2.81-3.6-.72-9,.7l-3.72.47-4.5-.27c2.79-.47,5.41-1,8.19-1.51,3.55-.7,6.94-1.45,10.32-2.2C705,454.11,705,454.38,705,454.6Z" transform="translate(0 0)"/><path class="cls-5" d="M679.05,458.13c-2.16,1.23.18,2.83-5.11,2.68-2.17-.27-2-1-3.1-1.53C673.63,458.87,676.42,458.56,679.05,458.13Z" transform="translate(0 0)"/><path class="cls-5" d="M670.15,476.31a8.64,8.64,0,0,1-3.78-.17l-4.58.43c-1.58.25-3,.49-4.58.69a3.33,3.33,0,0,0-.77-.69v-.27l5.35-.49c1-.36,2.06-.74,3-1,.47.11.94.24,1.57.34,1.74-.21,3.47-.51,5.2-.8l.78.19C671.58,475.13,670.78,475.7,670.15,476.31Z" transform="translate(0 0)"/><path class="cls-5" d="M667.09,465.16c-4.85,1.33-8,1.5-8.9.83C662.88,464.79,665.53,464.39,667.09,465.16Z" transform="translate(0 0)"/><path class="cls-5" d="M650.14,456.75l-6.69.3-6.59.22-1.53-.44c-.93.23-2,.46-3,.75q-27.86,1.59-55.71,1.69l1.54-1.58c5.38.16,10.61.52,14.86-.51,5.06.44,9.49-1.14,14.88-1.22.28.42-.53,1.05.69,1.27,5.25-.06,10-3,14.09-1.2,2.33-.35,4.5-.75,6.83-1.16,1.69.08,3.38.12,5.07.22.61.12,1.06.25,1.52.38l5.09-.08c2.78-.13,7.13-2,8.17-.37a19.74,19.74,0,0,1,4.48-.9c-.62.82,2,.85,2.91,1.85C654.63,456.23,652.31,456.52,650.14,456.75Z" transform="translate(0 0)"/><path class="cls-5" d="M622.33,479l-4.59.22,0-.82,4.58-.21Z" transform="translate(0 0)"/><path class="cls-5" d="M605.71,479.94c-2.43.79-4.35,1.13-4.59.16Z" transform="translate(0 0)"/><path class="cls-5" d="M589,479.6c-10.11,1.74-17.6.64-25.83.69-9.91.83-23.95.16-34.15-.51-.71-.51-2.48-.31-3.74-.41a5.33,5.33,0,0,0-.82.23c-16,.06-30.27-1.89-45.39-1.16-1.17-.55-3.41-.39-5.13-.54-5.64.68-14.15-.41-21.24-.56-2.36.9-8-.31-11.4.17-8.11-.64-15.28.72-23.43-.68a13.56,13.56,0,0,1,4.79-1.32l.24-1.56,12.11.36a4.11,4.11,0,0,0,.63,1.06c1.46-.25,3.09-.54,4.7-.78,4.24.16,8.49.28,12.74.39,2.31.33,5.56.77,7.59-.09,1.56.13,3,.31,4.51.5,2.52,0,5,0,7.56.12,2.21,0,4.58,0,6.78.08l.78.05c1.76-.07,3.5-.15,5.42-.26l5.2.05c1.75,0,3.64,0,5.38,0s3.42.34,5.13.53l15.07.71,4.56.2,4.56.18,3,.12c1.37.37,3.94.09,3.67.89,3.15.05,6.59.43,10-.23,3.25,1.73,13.59,1.33,18.67,1.14l11.27.22c3.67.09,7.49.11,12.24,0C586,479.32,587.44,479.48,589,479.6Z" transform="translate(0 0)"/><path class="cls-5" d="M566.88,459.55c-3.41,0-6.81-.06-10.37-.09l-4.24-.87c1.56-1.31,5.9-.09,7.42-1.2,1.94-.69,5.07.29,7.36.6h5.26c-.35.38.87.54,1.41,1.3C571.4,459.34,569.21,459.45,566.88,459.55Z" transform="translate(0 0)"/><path class="cls-5" d="M520.71,459.16c-2.18-.14-4.5-.35-6.67-.56l-2.26-.59c-3.82.31-2.4,1.29-4.56,1.08-1.1,0-2.06.06-3.17.12l-2.18-.11c-2.8-.25-5.44-.49-8.25-.69-2.85-.9-7-.79-12.73-.39-2.78-.36-5.58-.67-8.21-1-1.62.19-3.07.39-4.67.52l-9.05-.69-8.93-.46c-1.22-.28-2.45-.51-3.68-.73l-4.54-.24a5.14,5.14,0,0,0-.83.23l-4.55-.24c-1.32-.61-2.81-1.17-4.13-1.78-1.85-.32-2.75.39-4.59,0l-6.11-.32-4.39-.23a5.33,5.33,0,0,0-.94,1l-2.35-.12c-2.18-.28-4.34-.55-6.66-.89-2.83,0-5.52-.07-8.35-.16l-.62,0a5.81,5.81,0,0,1-.54-1.6c1.45-.14,3.06-.33,4.66-.52a24.26,24.26,0,0,1,4.35.5c1.76-.12,3.66-.19,5.41-.26,1.65-.4,3.95,0,6,0l4.54.24,18.72,1.51c.49-.08,1-.11,1.61-.19,2.48.3,5,.59,7.44.93l3,.16c3.8.95,5.36,1.09,6.66.83l3.79,0c3.23.55,1.13-1.13,3.93-.88.88.43,1.93.81,2.81,1.23,2.35.12,6.39,1.52,6.94.09a25.21,25.21,0,0,0,7.52.39c2.77.47,3.27.28,6.81-.19.26,1.37,1.21,1.37,3.71.46,5.5,1.15,11.79,1.14,16.35,1.08,2.15.26,5.37.79,6.11,0,6.08.15,9.92.63,15.73.34-1.52-1.4,4-.56,5.18-.32,2.43,1.65,8.81.3,11.73,1.81-2.65.06-4.31.89-6.8.93C536.15,459.45,528.36,459.33,520.71,459.16Z" transform="translate(0 0)"/><path class="cls-5" d="M412.67,476.77c-3.23.43-8.75.41-10.49-.54C404,475.51,407.1,476.1,412.67,476.77Z" transform="translate(0 0)"/><path class="cls-5" d="M391.44,476.21a22.63,22.63,0,0,1-8.2-.15C383.21,475.3,386.36,475.35,391.44,476.21Z" transform="translate(0 0)"/><path class="cls-5" d="M380.11,475.89a19.92,19.92,0,0,1-7.6.1l-5.95-.31c.66-.19,1.58-1,6-.18Z" transform="translate(0 0)"/><path class="cls-5" d="M360.6,475.36a19.07,19.07,0,0,1-7.6.15c-2.06.06-4.13.11-6.2.22l-6.82.13c-4.53-.29-7.06.72-13,.35-2.23.11-4.45.15-6.83.19-1.88,0-3.06-.59-5.08-.8l1.57-1,4.54.23c2,.27,3.87.53,5.87.85.69-.34,1.21-.64,1.73-.94,1.23.23,3.54.62,4.63-.3l1.41.08c1.7.25,4.63.72,6.2-.22l1.41.07c1.53.3,3.07.54,4.46.77,2.68,0,2-.65,6.19-.22Z" transform="translate(0 0)"/><path class="cls-5" d="M302.13,475.47c-.31,2-5.48.74-8.46.58-2.67.89-8.23.06-8.59,1.4-2.7,0-2.63-.41-4.23-1.25a11.66,11.66,0,0,1-1.4-1.16c3.33,0,6.66-.14,9.84-.24l2.35.12.78,0c.64-.07,1.43-.09,2.24-.16Z" transform="translate(0 0)"/><path class="cls-5" d="M276.88,477.29c.38.62,1.05,1.35-.2,1.29a7.28,7.28,0,0,1-3.37,1.34c-2.43-.67-2.88-1.77-6.3-3.14l-1.65,1.43c-.35-1.75-7.08-1.18-7.24-2.16l.09-.54c-1.31-.72-3.24-1.52-4.27-2l.25-1.56c2.67.14,1.1-1,.29-1.82a26.43,26.43,0,0,1-.26-3.37,5.23,5.23,0,0,1,.91-.77l6.62,1.16a14.21,14.21,0,0,0,1.24,2.12c.11.28.38.56.5.84l2.11,1.63-.38,2.36c-.07.48-.16,1,1.83,2.42,2.1-.27,4.19-.49,6.28-.7Z" transform="translate(0 0)"/><path class="cls-5" d="M258.25,455.27a3.59,3.59,0,0,1-3.13.87c-2.9-.64-2.94-1.4-2.66-2.2a12.13,12.13,0,0,1,5.92.52C258.32,454.89,258.29,455.06,258.25,455.27Z" transform="translate(0 0)"/><path class="cls-8" d="M685.09,457.43c-1.38.76-5.88,1.55-6,.7,2-.61.3-1.83,3.7-2C683.53,456.58,684.31,457,685.09,457.43Z" transform="translate(0 0)"/><path class="cls-8" d="M667.12,459.4c-.47.81-2.64.69-3.72.63-2.33.05-5,.13-7.44.14,1.26-1.53,5.44-1.86,9-2.13C665.73,458.51,666.51,459,667.12,459.4Z" transform="translate(0 0)"/><path class="cls-8" d="M338.36,472.15c2.19.17,4.37.39,6.7.62a7.74,7.74,0,0,0,5.37-1,7.74,7.74,0,0,1-5.37,1C342.73,472.54,340.55,472.32,338.36,472.15Z" transform="translate(0 0)"/><path class="cls-8" d="M336.68,472.82c-1.74,0-3.88-.42-5.5.8l-3.05.33h-5.22c-1.54-.25-3.08-.49-4.46-.78-1.64.4-4.1,0-6.23.49l-5.17-.27c.24-.53,0-1-1.33-1.63l.79,0,12.11.35c5.8.25,9.69-.36,14.46-.54l3.72.46Z" transform="translate(0 0)"/><path class="cls-8" d="M279.45,475l.16-1,6.08-.44c2.09-.21,2.43.61,3.6,1.22C286.11,474.9,282.78,475,279.45,475Z" transform="translate(0 0)"/><path class="cls-6" d="M725,449.81c-2.52,2.13-7.81,2-11.8,2.86a8.15,8.15,0,0,0-.85-1.73C716.64,450.55,720.81,450.24,725,449.81Z" transform="translate(0 0)"/><path class="cls-6" d="M636.86,457.27c-1.24.35-.51,1.38-4.48.31.93-.29,2-.52,3-.75Z" transform="translate(0 0)"/><path class="cls-6" d="M617.82,466.94,612.4,469c0,.32,0,.7-.07,1l-4.52-.09-2.21.35-2.9-.93c-6.64,1.11-16.49,1-22.57.76-2.58-.75-8.3,0-14.94-.76l.06-.48a45,45,0,0,0,12-1.1l0-.49-7.49,0h-4.37l0,.27c-2.33-.13-4.51-.26-6.84-.34-1,.26-1.93.46-3.06.72l-2.84-1.07c-1.94.51-4.84,0-6.78.4l-5.2-.94a4,4,0,0,0,.85-.47c4.58.89,5.5-1.43,7.48.19l3.75.07,5.89.29c2.05-.2,4.11-.44,6.17-.69,1.69.17,3.39.32,5.08.54,1.12-.22,2.07-.38,3.18-.54,1.37.26,2.91.55,4.29.74,1.28-.34,3-.25,6.81.46-.8.28-1.61.56-2.41.78,4.3.76,5-.32,6.74-.3,2.82-.18,6.07,0,8.29-.47,4.38-.1,8.59-.29,12.8-.43l5.93-.26Z" transform="translate(0 0)"/><path class="cls-6" d="M527.17,466.46c-1.57,0-3,0-4.57.09l0-.27c-1.41,0-3,0-4.57.07l-.08.49-4.37-.2c-2.5-.16-5.14-.4-7.48-.62a17,17,0,0,1-3.79.08c-1.39-.23-2.46-.44-3.68-.67,2.88-.29,3.31-1,8.3-.67,2.8.24,5.44.48,8.25.66l.78,0,6.79-.19,4.5.39,4.41,1Z" transform="translate(0 0)"/><path class="cls-6" d="M514,458.6a11.25,11.25,0,0,1-3.15,1.15c-1.38-.22-2.45-.44-3.67-.66,2.16.21.74-.77,4.56-1.08Z" transform="translate(0 0)"/><path class="cls-6" d="M469.89,464.7c-4.26-.05-8.52-.11-12.78-.12l-16.65-.65c-1.58,0-2.63.68-4.63.3l-3.71-.46-13.61.1c-2.49-.24-5-.47-7.48-.66l7.65-.41c4.7.24,6.42-.59,13.55.22,2.39-.1,4.61-.14,6.83-.19,3.49-.14,5.85-.08,9.2-.28,3,.21,5.93.47,9.05.74,2.77-.5,6.27.33,8.11.64,1.56.19,3.1.38,4.51.5Z" transform="translate(0 0)"/><path class="cls-6" d="M432.6,455.73c-.46-.08-.91-.21-1.38-.29-1.61.24-3.07.49-4.7.78l-1.57-.08a84.57,84.57,0,0,0-8.68-2,5.33,5.33,0,0,1,.94-1l4.39.23,6.11.32c1.84.36,2.74-.35,4.59,0,1.32.61,2.81,1.17,4.13,1.78Z" transform="translate(0 0)"/><path class="cls-10" d="M414.87,457.94l-1.57-.08a2.19,2.19,0,0,0,0-.27c-3.87-.47-4.61.25-8.23.12-1.25-.07-3.3-.06-3.05-.7a14.43,14.43,0,0,0-6.9.67c-6.5-.83-12.89-.4-18.8-1s-4.42,2-5.08,3.15c-2.07.1-2.86-.86-4.23-1.25l-5.4.2a15.52,15.52,0,0,1-1.69.73c-1.74,0-3.89-.42-4.56.79l-3.13-.16-1.61,1.21a34.78,34.78,0,0,0-9.13-.2l-4.58,0c-2.5-1.16-5-.1-9.06.34l-1.57-.08-1.95-1.68c-2.84,0-5.53,0-8.39.11-1.61.24-3.07.49-4.7.78-1.42,0-3,0-4.58,0l-.12.75c-1,.11-2.09.21-3.07.38l-6.73-.35c-1.85.66-3.85,1.31-5.7,2l-2.19-.11c-.26-1.37-1.21-1.36-2-1.41-1.46.25-.79,1-1,1.52-.7.4-2.31.58-1.6.13-.52-.73-1.44-1.91-4.27-2l-4.46.25a26.27,26.27,0,0,0-5.25-.76l-5.33-.28c.08-.53.16-1,.25-1.55,1.12-.11,2.08-.22,3.22-.38a25.56,25.56,0,0,1-.22-3.63l.05-.27,2.19.11.78,0c2.49.24,5,.48,7.48.66l1.57.08,4.39.23c1.14-.21,1.85-.71,3.25-.59l3,.16c1.37.34,2.9.64,4.42,1,2.67.08,5.92.52,9,.19-.39-.51-.79-1.06-1.18-1.58-2.33-.23-4.51-.45-6.85-.62,1.84-.61,5.56-.15,5.54-1,2.83,0,5.51.07,8.34.16,5.08-.17,9-.78,16.12-1-5.82-.2-5.52-1.1-6.69-1.65a9.8,9.8,0,0,0,1.68-.67c1.54.24,2.93.48,4.46.77l.29-1.82,3.8-.07a3.41,3.41,0,0,0,.66.84c6-.17,7,1.93,11.2,1.07l.05-.27,5.95.31,6-.17a6.45,6.45,0,0,0,1-1.25l10.5.55,2.81,2.2c-1.72.88-6.7-.56-7.1.93l3,1c1.57,0,3.43.28,4.47-.31l19.71.27,9.08.47,3.73.41,6.77.13,4.47.72,1.41.08a16,16,0,0,1,5.28.54C417.09,456.92,417.35,457.26,414.87,457.94Z" transform="translate(0 0)"/><path class="cls-6" d="M412.22,455.75l-4.55-.24-6.77-.13L398.75,454l-1.58,1-9.08-.47c-.7-.58-1.24-1.15-1.95-1.68,1-.05,2.07-.1,3-.11l9.13.21.62,0c2.83.09,5.52.12,8.35.16,2.32.34,4.48.61,6.66.89C413.35,454.56,412.79,455.13,412.22,455.75Z" transform="translate(0 0)"/><path class="cls-6" d="M399.67,463.11c-9-1.17-13.74-1-18.1-.4C385.93,462.12,390.7,461.94,399.67,463.11Z" transform="translate(0 0)"/><path class="cls-7" d="M360.9,453.57c.4-1.49,5.38-.05,7.1-.93l-2.81-2.2c1.27-.05,2.54-.09,3.8-.07a7.68,7.68,0,0,1,1.48.61l-.2,1.29c3.72.46,4.38-.75,6.82-.19,3,.21,6.09.48,9.05.74.71.53,1.25,1.1,1.95,1.68l-19.71-.27c-1,.59-2.9.34-4.47.31Z" transform="translate(0 0)"/><path class="cls-6" d="M377.09,452.08c-2.44-.56-3.1.65-6.82.19l.2-1.29,6.74.35Z" transform="translate(0 0)"/><path class="cls-6" d="M368.52,463.33l-5.29-.55.08-.48a13.36,13.36,0,0,1,6.11.32A3.15,3.15,0,0,0,368.52,463.33Z" transform="translate(0 0)"/><path class="cls-6" d="M357.49,466.11l-5.91-1.6-.62,0c-1.9,0-3.64,0-5.37,0a15.71,15.71,0,0,1-1.78,1.21c-4.44.15-7.31,1.3-12.93.9.6,1.17-5-.42-4,1.09-9.36,1.25-17.82-2.17-27.19-.87-1.73,0-4-.43-5.36-.06,1,.75,3.5.77,3.55,1.48l-.12.8-6,.18a15.91,15.91,0,0,1-2.08-.87c.25-.58.67-1.21.92-1.79,5.29-1.51,8.23-2.12,12.47-1.95,1.76-.12,3.68-.3,5.45-.47-1.7-.26-3.56-.51-5.25-.82l.24-1.5c1-.17,2.1-.27,3.07-.38l4.54.23c1.56.14,2.95.32,4.5.51,3.81-.13,6.72-.52,10.66-.48l0-.26,1.57.08,8.93.46c1.59,0,3.17-.05,4.59,0,.93.1,2,.27,2.94.42,1.73,0,3.63,0,5.36,0,.49-.08,1-.11,1.61-.19l4.35.5-.12.75,4.42,1C359.09,465,358.37,465.56,357.49,466.11Z" transform="translate(0 0)"/><path class="cls-7" d="M326.27,452.8c-7.15.22-11,.83-16.12,1-2.83-.09-5.51-.12-8.34-.16,0,.86-3.7.4-5.54,1,2.34.17,4.52.39,6.85.62.39.52.79,1.07,1.18,1.58-3.06.33-6.31-.11-9-.19-1.52-.35-3.05-.65-4.42-1l-3-.16c-1.4-.12-2.11.38-3.25.59l-4.39-.23c.55-.46,1.1-1,1.66-1.48l-4.55-.24-.63,0,.12-.75c.09-.54.17-1,.25-1.56-.73-1.39-1.79-1.66-1.24-2.12,1-.16,2.09-.27,3.06-.38l2.15,1.41c3.29.17,6.7.56,9-.29l.2-1.28,8.31.43c2.85-.07,5.54-.09,8.39-.11a31.74,31.74,0,0,1,6.81-.13c2.54-.09,5.07-.12,7.61-.15l4.54.24-.29,1.82c-1.53-.29-2.92-.53-4.46-.77a9.8,9.8,0,0,1-1.68.67C320.75,451.7,320.45,452.6,326.27,452.8Z" transform="translate(0 0)"/><path class="cls-6" d="M290.35,449.15l-.2,1.28c-2.35.85-5.76.46-9,.29L279,449.31l5.4-.21C285.21,448.66,288.31,449.09,290.35,449.15Z" transform="translate(0 0)"/><path class="cls-6" d="M280.28,455.87l-1.57-.08c-2.5-.18-5-.42-7.48-.66,1.79-.34,3.59-.68,5.53-1l.63,0,4.55.24C281.38,454.9,280.83,455.41,280.28,455.87Z" transform="translate(0 0)"/><path class="cls-6" d="M277.13,451.81c-.08.54-.16,1-.25,1.56-1.84-.37-3.51-.72-5.2-1a4,4,0,0,1,.91-.76c1.05-.65,2.25-1.24,3.3-1.89C275.34,450.15,276.4,450.42,277.13,451.81Z" transform="translate(0 0)"/><path class="cls-6" d="M268.21,455.25c-4.58,0-7.52.63-10,0,0-.21.07-.38.13-.81a15.18,15.18,0,0,0,1.73-.93l8.15,1.45Z" transform="translate(0 0)"/><path class="cls-9" d="M713.17,452.67c-2,.58-3.83,1.12-5.83,1.61l-2.31.32c0-.22,0-.49,0-1,1.53-.7,2.89-1.43,4.41-2.19l2.92-.43A8.15,8.15,0,0,1,713.17,452.67Z" transform="translate(0 0)"/><path class="cls-9" d="M588.5,467.45c-1.72,0-2.44,1.06-6.74.3.8-.22,1.61-.5,2.41-.78C585.56,467.11,587.11,467.27,588.5,467.45Z" transform="translate(0 0)"/><path class="cls-9" d="M299.77,471.44a18.72,18.72,0,0,0-7.85,1.65l-.28,1.83-2.35-.12c-1.17-.61-1.51-1.43-3.6-1.22l-6.08.44c-.24-.44-.33-.88-.58-1.33-2.64-3.27,8.89-.29,8-2.66h-3.79c.89-.65-1.1-1-1.18-1.57a5.81,5.81,0,0,1,.71-.5l6.12.31.78,0a15.91,15.91,0,0,0,2.08.87c.82,1.77,4.52,1.37,6.53,1.64A8,8,0,0,0,299.77,471.44Z" transform="translate(0 0)"/><path class="cls-9" d="M276.76,454.12c-1.94.33-3.74.67-5.53,1l-.78,0c.46-.9.77-1.85,1.23-2.75,1.69.31,3.36.66,5.2,1Z" transform="translate(0 0)"/><path class="cls-9" d="M268.61,471.66l0,.22-3-.15-2.11-1.63,5.33.28Z" transform="translate(0 0)"/><path class="cls-7" d="M400.9,455.38l-3.73-.41,1.58-1Z" transform="translate(0 0)"/><path class="cls-7" d="M353.7,451.14l-6,.17-5.95-.31-.05.27c-4.24.86-5.17-1.24-11.2-1.07a3.41,3.41,0,0,1-.66-.84c4.94-.24,7.83-.57,11.4-.17l13.48.7A6.45,6.45,0,0,1,353.7,451.14Z" transform="translate(0 0)"/><path class="cls-7" d="M340.61,458l-4.54-.24c-1.05-.37-1.93-.8-2.82-1.17-7.56-1.1-11.8.74-18.22-.68l.09-.53c2.84,0,5.53,0,8.39-.11,4.77-.18,11.62.44,17.39.91C340.81,456.75,340.7,457.39,340.61,458Z" transform="translate(0 0)"/><path class="cls-7" d="M326.28,461.67c-3.94,0-6.85.35-10.66.48-1.55-.19-2.94-.37-4.5-.51l-4.54-.23.12-.75c1.58,0,3.16-.06,4.58,0,1.63-.29,3.09-.54,4.7-.78,2.86-.07,5.55-.09,8.39-.11l1.95,1.68Z" transform="translate(0 0)"/><path class="cls-7" d="M308.52,464.11c-3,.87-4.24.8-5.45.47-4.24-.17-7.18.44-12.47,1.95l-5.88-.79c-.27-.29-.39-.56-.66-.85l.21-1.29c-.71.45.9.27,1.6-.13.24-.53-.43-1.27,1-1.52.78.05,1.73,0,2,1.41l2.19.11c1.85-.72,3.85-1.37,5.7-2l6.73.35-.24,1.5C305,463.6,306.82,463.85,308.52,464.11Z" transform="translate(0 0)"/><path class="cls-7" d="M277.12,465.83l-1.57-.08-5.46,1.55-.78,0c-2.51-.07-5-.1-7.56-.12L255.13,466l.08-.48c-1-.91-1.76-1.82-2.57-2.73,1.54-.73,3.23-1.4,4.76-2.08a14.39,14.39,0,0,0-1.33-.61l-2.35-.12c-3.34-.82-1.43-2-1.74-3l3.14-.86a3.59,3.59,0,0,0,3.13-.87c2.44.61,5.38,0,10,0a25.56,25.56,0,0,0,.22,3.63c-1.14.16-2.1.27-3.22.38-.09.53-.17,1-.25,1.55l5.33.28a26.27,26.27,0,0,1,5.25.76l0,.27c.07.54.31,1,.38,1.59.74.31,1.48.62,2.23.87A6.86,6.86,0,0,0,277.12,465.83Z" transform="translate(0 0)"/><path class="cls-7" d="M269.07,473.74c-1.28.1-2.56.2-3.85.35l.38-2.36,3,.15A8,8,0,0,0,269.07,473.74Z" transform="translate(0 0)"/><path class="cls-10" d="M459.66,457.41l-7.76,1.16-.79,0a14.22,14.22,0,0,1-1.32-.61c.08-.48.16-1,.24-1.5l8.93.46A3.09,3.09,0,0,1,459.66,457.41Z" transform="translate(0 0)"/><path class="cls-10" d="M289.68,468.32l-.78,0-6.12-.31c-.1-.34-.35-.73-.46-1.06.7-.39,1.55-.78,2.4-1.17l5.88.79C290.35,467.11,289.93,467.74,289.68,468.32Z" transform="translate(0 0)"/><path class="cls-10" d="M273.57,469.32l-1.57-.08c-.75-.25-1.35-.45-2.11-.65l.2-1.29,5.46-1.55,1.57.08,0,.27a14.06,14.06,0,0,0,1.2,2.39C276.65,468.78,275,469,273.57,469.32Z" transform="translate(0 0)"/><path class="cls-8" d="M305.72,471.76c-1.29.2-2.59.4-3.88.55.23.61.28,1.26.5,1.87L297,473.9c-1.29.2-1.21.64-2.35.9-.81.07-1.6.09-2.24.16l-.78,0,.28-1.83a18.72,18.72,0,0,1,7.85-1.65,8,8,0,0,1-1.48-.61l-3.76-.2c-2.89.28-3.2-.76-2.77-1.44l6-.18.12-.8,3.17,0c4.63-.3,5.44,1.58,11.12,1.6.69.64-1.68.67-1.73.94-1.59.08-3,.17-4.63.3Z" transform="translate(0 0)"/><path class="cls-4" d="M302.34,474.18l-.21,1.29-7.47-.67c1.14-.26,1.06-.7,2.35-.9Z" transform="translate(0 0)"/><path class="cls-5" d="M601.12,480.1l-4.59.13C598,480.24,596.93,479.27,601.12,480.1Z" transform="translate(0 0)"/><path class="cls-5" d="M315.07,475.6a37.11,37.11,0,0,1-12.94-.13l.21-1.29c2.81.2,5.46.44,8.26.7Z" transform="translate(0 0)"/><path class="cls-8" d="M352.33,469.74a25.71,25.71,0,0,1-6.87.46C343.31,467.86,349.5,468.67,352.33,469.74Z" transform="translate(0 0)"/><path class="cls-8" d="M628.87,470.51c-1.08-.21-2-.43-3.1-.58,1-.6,1.32-1.49,3.81-1.31,1.4,0,2.49.08,3.74.05C633.28,469.77,629.71,469.21,628.87,470.51Z" transform="translate(0 0)"/><path class="cls-6" d="M498.67,465.43c-1.4-.12-2.11.38-3.25.59l-3.71-.45-5.3.53-1.48-.62c-2.59.36-6-.14-9-.19-1.53-.3-3.07-.54-4.46-.77a10.16,10.16,0,0,0,3.1-.6l10.5.54a49.24,49.24,0,0,1,6.66.84C493.47,465.33,494.37,464.67,498.67,465.43Z" transform="translate(0 0)"/></g></g><rect class="cls-11" x="29.86" y="37.23" width="461.81" height="507.49" transform="translate(15.12 -12.88) rotate(2.91)"/><rect class="cls-12" x="206.38" y="45.79" width="406.14" height="508.41" transform="matrix(0.99, -0.15, 0.15, 0.99, -41.16, 66.33)"/><rect class="cls-11" x="440.17" y="62.29" width="404.72" height="494.8" transform="translate(74.72 -121.99) rotate(11.51)"/><path class="cls-13" d="M395.3,23.27" transform="translate(0 0)"/></g><g id="Characters"><path class="cls-14" d="M482.87,159.09c4.89,33.06-5.56,58.76-9.18,66.41a110.39,110.39,0,0,1-10.09,17.11A92.45,92.45,0,0,1,454.08,254c-7,7-25.35,25.39-47.51,25.57-30.46.25-48.66-37.45-64.25-64.25-14.3-24.58-4.47-52-1.53-68.29a101.34,101.34,0,0,1,8.79-27.21c2.67-5.39,5.29-11,10.58-16.25,10-10,21.66-12.19,25-14.3,22.41-14.22,56.06.34,77.64,25.66A90.22,90.22,0,0,1,482.87,159.09Z" transform="translate(0 0)"/><path class="cls-14" d="M244.32,173" transform="translate(0 0)"/><polyline class="cls-14" points="463.6 242.61 477.77 270.68 412.69 290.98 406.57 279.56 463.6 242.61"/><path class="cls-14" d="M391.49,296.05c-30,9.27-45.12,13.95-48.21,16.49-11,9.1-37.66,44.24,35.53,211.88L622.4,430.53l35.53-20.3a333.69,333.69,0,0,0-34.26-88.81c-20.19-35.92-34.85-62-62.17-69.78-8.41-2.39-12-1.32-83.73,19C451.12,278.23,428.45,284.65,391.49,296.05Z" transform="translate(0 0)"/><path class="cls-15" d="M386.42,134.92" transform="translate(0 0)"/><path class="cls-15" d="M386.42,134.92" transform="translate(0 0)"/></g><g id="Text"><text class="cls-16" transform="translate(171.53 429.24) scale(1.06 1)">nancy</text></g></svg>